<?xml version="1.0" standalone="no"?>
<!DOCTYPE svg PUBLIC "-//W3C//DTD SVG 20010904//EN"
 "http://www.w3.org/TR/2001/REC-SVG-20010904/DTD/svg10.dtd">
<svg version="1.0" xmlns="http://www.w3.org/2000/svg"
 width="707.000000pt" height="570.000000pt" viewBox="0 0 707.000000 570.000000"
 preserveAspectRatio="xMidYMid meet">
<metadata>
Created by potrace 1.16, written by Peter Selinger 2001-2019
</metadata>
<g transform="translate(0.000000,570.000000) scale(0.100000,-0.100000)"
fill="#000000" stroke="none">
<path d="M3265 5364 c-27 -19 -58 -40 -67 -47 -10 -6 -18 -19 -18 -28 0 -9 -6
-19 -13 -22 -24 -9 -97 -131 -118 -196 -12 -36 -23 -95 -26 -131 -4 -56 -1
-75 26 -140 17 -41 31 -85 31 -97 0 -12 5 -25 10 -28 15 -9 2 -25 -19 -25 -21
0 -34 -46 -25 -88 10 -47 26 -82 35 -76 5 2 15 -11 23 -29 32 -77 61 -56 69
50 8 102 25 180 44 198 8 8 27 15 41 16 15 0 45 1 67 3 22 1 46 -2 54 -8 10
-8 15 -8 18 2 6 15 63 16 63 1 0 -5 5 -7 10 -4 6 3 10 2 10 -4 0 -6 -12 -8
-29 -5 -36 8 -98 -12 -128 -39 -29 -26 -29 -35 1 -43 13 -3 23 -12 22 -22 -3
-36 75 -50 152 -26 17 5 22 2 22 -12 0 -11 4 -25 9 -33 8 -12 13 -12 35 2 33
22 45 46 56 114 8 47 6 61 -10 93 -11 21 -24 41 -30 45 -12 7 -14 42 -2 47 4
2 18 24 31 50 13 26 28 45 32 42 5 -3 16 12 24 33 16 36 17 37 31 19 13 -19
14 -18 14 11 0 17 8 37 19 47 18 16 20 15 40 -27 11 -24 21 -50 21 -58 0 -9
16 -34 36 -57 20 -24 34 -48 31 -55 -2 -7 -32 -18 -65 -25 -67 -14 -83 -27
-82 -68 0 -16 -2 -43 -6 -60 -5 -26 0 -38 24 -65 26 -29 36 -33 91 -37 70 -5
109 13 53 24 -60 12 -31 34 44 34 47 0 58 15 22 30 -13 5 -18 9 -13 10 29 2
-26 20 -62 20 -37 0 -43 3 -43 20 0 26 9 29 101 39 100 11 123 -1 144 -74 9
-30 19 -100 23 -155 7 -97 8 -100 26 -87 17 12 19 25 18 83 -2 78 5 115 19 93
5 -8 9 -28 9 -46 0 -48 18 -49 25 -1 7 45 -7 98 -25 98 -18 0 -11 46 16 105
25 53 26 65 21 154 -6 107 -35 200 -87 275 -30 44 -147 142 -157 132 -3 -3
-14 -1 -24 4 -12 7 -22 6 -32 -5 -13 -12 -17 -12 -33 0 -11 8 -23 14 -29 14
-5 0 -2 -6 8 -14 15 -11 17 -21 12 -46 l-7 -32 -39 43 c-22 24 -39 49 -39 56
0 16 -32 27 -53 19 -8 -4 -29 1 -46 9 -40 21 -63 20 -59 -1 2 -12 -7 -20 -32
-26 -74 -20 -172 -60 -177 -73 -3 -8 -10 -14 -15 -14 -6 0 1 15 16 34 17 23
22 37 15 42 -6 3 -16 1 -22 -5 -17 -17 -31 -13 -17 4 11 13 7 14 -27 11 -22
-2 -54 -11 -71 -20 -36 -18 -46 -20 -37 -6 3 5 26 18 51 29 25 12 43 25 39 31
-9 15 -15 13 -70 -26z"/>
<path d="M4580 5017 c-27 -14 -38 -64 -36 -159 1 -34 -3 -48 -12 -48 -20 0
-72 -56 -72 -78 0 -29 36 -70 83 -94 48 -25 137 -29 177 -8 50 25 90 72 90
106 0 37 -25 111 -44 134 -8 8 -22 41 -31 72 -10 34 -25 64 -38 73 -26 18 -83
19 -117 2z m68 -8 c44 -15 57 -82 27 -139 -9 -17 -15 -32 -15 -35 1 -21 -3
-25 -22 -25 -34 0 -42 10 -57 68 -18 73 -4 141 30 142 3 0 20 -5 37 -11z"/>
<path d="M3490 4458 c-13 -24 -43 -70 -68 -102 -38 -51 -43 -62 -33 -82 6 -13
15 -24 21 -24 5 0 10 -7 10 -15 0 -8 6 -15 13 -15 7 0 22 -8 33 -18 10 -10 27
-16 36 -14 10 2 28 -4 40 -12 12 -9 30 -16 39 -16 10 0 16 -7 15 -17 -1 -22
52 -30 84 -13 21 11 21 12 3 25 -10 9 -13 14 -5 15 6 0 12 5 12 10 0 6 -17 10
-39 10 -22 0 -44 6 -51 15 -11 13 -6 15 31 16 37 1 40 2 19 9 -14 4 -40 8 -57
9 -33 1 -43 14 -22 26 15 10 167 18 197 10 20 -5 23 -8 12 -15 -25 -16 -1 -24
33 -12 19 7 44 12 58 12 31 0 69 26 69 47 0 9 -16 38 -35 64 -19 27 -35 53
-35 58 0 11 -70 71 -83 71 -4 0 -3 -9 4 -21 6 -12 9 -30 6 -40 -3 -10 -2 -19
2 -19 11 0 43 -98 36 -110 -6 -10 -107 -7 -192 6 -46 7 -41 24 7 24 27 0 47 7
60 20 11 11 24 20 29 20 5 0 14 6 20 14 10 12 7 18 -13 31 -24 16 -28 16 -51
1 -18 -12 -30 -13 -50 -6 -14 5 -25 14 -25 20 0 16 -19 12 -50 -10 -24 -17
-29 -18 -40 -5 -7 9 -10 27 -6 45 8 43 -6 37 -34 -12z"/>
<path d="M3360 4125 c-20 -33 -20 -62 1 -50 5 4 9 1 9 -4 0 -15 -16 -14 -56 5
-19 9 -38 13 -42 9 -4 -3 -8 -50 -9 -103 -3 -104 -7 -127 -23 -117 -20 12 -9
-37 32 -141 31 -79 47 -108 64 -114 12 -5 27 -17 32 -27 6 -10 13 -17 16 -15
4 1 20 -5 37 -14 29 -15 32 -14 53 5 12 12 29 21 37 21 11 0 12 2 1 9 -20 12
5 20 48 15 19 -3 44 -6 55 -7 14 -1 19 3 17 15 -1 9 4 34 13 54 10 25 12 40 5
44 -13 8 -9 60 5 60 6 0 19 19 30 43 10 23 33 59 52 80 18 20 33 45 33 55 0
28 -46 44 -133 48 -60 2 -83 7 -103 23 -15 12 -32 21 -39 21 -7 0 -18 13 -23
30 -10 26 -68 89 -84 90 -3 0 -16 -16 -28 -35z"/>
<path d="M3177 3543 c-81 -54 -96 -68 -82 -76 9 -5 25 -7 36 -4 10 3 19 1 19
-3 0 -4 9 -6 21 -3 12 4 32 -3 50 -16 31 -23 67 -22 52 1 -4 7 -6 21 -5 30 3
13 -3 17 -19 15 -16 -1 -24 4 -27 17 -5 22 23 47 43 40 11 -4 23 22 26 53 1
19 -23 7 -114 -54z"/>
<path d="M2556 3409 c-3 -13 -10 -64 -16 -114 -5 -49 -19 -157 -31 -240 -38
-288 -89 -699 -89 -726 0 -15 -4 -30 -9 -33 -5 -3 -6 86 -4 207 7 288 -29 638
-62 605 -3 -3 -1 -25 4 -49 15 -65 14 -99 -4 -99 -8 0 -15 -7 -15 -15 0 -8 5
-15 10 -15 6 0 10 5 10 10 0 6 4 10 9 10 5 0 7 -17 4 -37 -2 -21 2 -72 11
-113 18 -85 20 -126 7 -134 -5 -3 -14 8 -20 24 -5 17 -15 30 -22 30 -17 0 -5
-61 26 -137 29 -73 32 -136 9 -228 -15 -58 -15 -69 0 -135 15 -65 14 -176 -1
-203 -2 -4 -24 7 -49 24 -44 30 -131 52 -192 47 -16 -1 -41 6 -56 15 -31 21
-84 14 -66 -8 6 -8 29 -16 51 -20 59 -10 96 -28 170 -82 24 -18 54 -39 65 -47
34 -24 74 -100 85 -163 10 -52 17 -63 72 -115 34 -31 67 -57 73 -58 7 0 26 27
44 61 17 33 40 74 50 91 20 34 17 58 -9 58 -14 0 31 47 101 106 48 40 88 107
88 147 0 19 -1 19 -19 3 -10 -10 -22 -13 -25 -8 -3 5 -33 8 -66 8 -47 -1 -64
2 -70 14 -10 18 0 73 18 107 7 12 12 30 12 41 0 11 7 22 15 26 8 3 20 16 26
30 10 21 8 28 -20 55 l-31 30 10 68 c5 37 12 84 15 103 3 19 18 145 35 280 45
378 48 567 7 563 -11 0 -16 4 -14 12 4 8 -4 12 -21 12 -15 0 -46 3 -69 8 -39
7 -42 6 -47 -16z"/>
<path d="M2800 3271 c14 -11 52 -34 86 -51 93 -46 145 -97 184 -182 18 -40 50
-100 71 -133 20 -33 40 -71 44 -85 4 -14 11 -30 16 -36 5 -6 18 -42 30 -80 11
-38 30 -83 40 -100 10 -17 19 -41 19 -52 0 -34 17 -34 38 1 11 17 33 49 48 70
l28 38 -28 52 c-40 74 -55 89 -77 77 -10 -6 -30 -10 -46 -10 -22 0 -25 2 -13
10 13 9 12 13 -7 29 -15 12 -20 25 -16 40 4 15 1 21 -10 21 -9 0 -21 9 -27 19
-13 26 -13 31 5 31 20 0 19 16 -1 24 -22 9 -26 8 -18 -6 5 -7 3 -8 -5 -4 -7 5
-10 14 -7 21 3 8 0 16 -7 19 -9 3 -8 8 3 15 14 10 13 12 -9 15 -6 0 -26 33
-46 72 -32 66 -42 76 -118 127 -48 33 -98 58 -122 62 -22 4 -49 9 -60 12 -17
4 -16 1 5 -16z"/>
<path d="M2171 2988 c1 -63 54 -275 84 -337 42 -87 85 -136 85 -97 0 7 -15 47
-33 87 -18 41 -46 115 -61 164 -15 50 -34 110 -42 134 -8 25 -14 52 -14 62 0
10 -4 21 -10 24 -6 4 -10 -11 -9 -37z"/>
<path d="M1145 2035 c0 -506 1 -714 2 -463 2 251 2 665 0 920 -1 255 -2 49 -2
-457z"/>
<path d="M4210 2665 c0 -11 5 -38 11 -60 27 -109 67 -345 75 -441 7 -85 8 -87
50 -129 54 -53 56 -76 8 -146 -30 -45 -34 -56 -24 -74 6 -11 21 -40 34 -64
l23 -45 6 33 c4 19 7 44 7 57 0 17 5 22 20 21 12 -1 18 -7 16 -14 -5 -12 11
-29 19 -21 4 4 -17 135 -34 209 -6 24 -17 85 -26 134 -10 50 -36 140 -60 200
-24 61 -55 155 -71 210 -30 108 -54 166 -54 130z"/>
<path d="M3177 2373 c-12 -15 -44 -51 -71 -80 -26 -29 -69 -85 -95 -125 -135
-211 -240 -343 -428 -541 -21 -22 -25 -32 -17 -45 6 -9 15 -17 21 -19 9 -3
119 141 347 451 28 38 94 127 147 198 97 131 135 188 124 188 -3 0 -15 -12
-28 -27z"/>
<path d="M1869 2050 c-42 -12 -79 -41 -79 -61 0 -20 15 -26 25 -10 3 6 18 6
37 0 18 -5 34 -5 37 0 4 4 26 9 50 9 41 2 131 38 131 53 0 18 -147 26 -201 9z"/>
<path d="M2137 1750 c-14 -11 -30 -20 -37 -20 -6 0 -37 -12 -68 -26 -31 -15
-77 -33 -102 -40 -92 -27 -119 -39 -123 -54 -2 -9 -22 -21 -44 -28 -23 -7 -48
-23 -57 -37 -9 -14 -24 -25 -34 -25 -13 0 -14 -2 -3 -9 7 -5 11 -13 7 -19 -4
-7 11 -13 39 -18 25 -3 49 -13 54 -21 6 -11 18 -13 55 -8 l47 7 -29 18 c-69
42 -44 53 33 15 63 -31 80 -42 124 -83 20 -18 59 -48 87 -67 28 -19 56 -40 62
-48 7 -8 30 -22 52 -32 36 -16 40 -22 40 -54 0 -35 -1 -36 -41 -38 -23 0 -45
-5 -50 -10 -6 -6 152 -9 398 -7 546 3 554 3 523 15 -13 6 -28 15 -31 21 -6 9
-12 8 -24 -2 -15 -12 -18 -12 -26 3 -6 9 -21 17 -35 17 -13 0 -51 14 -84 30
-33 17 -74 30 -92 30 -20 0 -43 9 -58 23 -40 35 -71 53 -125 67 -27 7 -54 19
-58 27 -4 7 -17 13 -27 13 -11 0 -20 4 -20 9 0 10 -80 44 -88 37 -5 -6 -84 45
-119 77 -13 11 -23 16 -23 11 0 -5 -4 -4 -8 2 -11 17 -90 64 -108 64 -9 0 -18
9 -21 20 -3 11 -9 20 -14 20 -5 0 -9 14 -9 30 0 26 8 36 63 70 59 38 60 40 31
40 -17 0 -43 -9 -57 -20z"/>
<path d="M4664 1393 c-4 -38 -4 -205 -1 -373 4 -168 7 -371 7 -452 l0 -148 44
0 c75 0 77 4 43 68 -25 46 -32 74 -38 147 -4 50 -9 106 -12 125 -22 163 -25
259 -10 332 6 26 19 60 29 75 10 15 25 40 34 54 53 91 81 115 126 110 16 -1
23 5 28 23 9 35 0 51 -37 63 -51 18 -141 27 -133 14 4 -6 1 -11 -7 -11 -8 0
-17 9 -20 20 -3 12 -14 20 -25 20 -18 0 -21 -9 -28 -67z"/>
<path d="M4157 1377 l-39 -32 26 -128 c45 -217 38 -471 -15 -582 -23 -48 -27
-67 -20 -90 4 -17 6 -36 4 -43 -3 -7 2 -28 12 -47 14 -30 21 -35 50 -35 l35 0
1 208 c0 114 2 315 4 447 4 229 0 335 -14 335 -3 0 -23 -15 -44 -33z"/>
<path d="M3605 1328 c-27 -4 -82 -11 -122 -16 -40 -4 -75 -11 -78 -14 -3 -3
15 -18 41 -33 26 -16 63 -43 81 -62 35 -35 53 -36 53 -3 0 20 11 25 75 35 81
14 121 45 68 53 -12 2 -23 11 -26 21 -6 23 -30 28 -92 19z"/>
</g>
</svg>
